<?xml version="1.0" encoding="UTF-8"?>
<svg id="_レイヤー_2" data-name="レイヤー 2" xmlns="http://www.w3.org/2000/svg" viewBox="0 0 1788.99 1182.75">
  <defs>
    <style>
      .cls-1, .cls-2, .cls-3, .cls-4, .cls-5, .cls-6, .cls-7 {
        stroke: #231815;
      }

      .cls-1, .cls-2, .cls-3, .cls-4, .cls-5, .cls-6, .cls-7, .cls-8 {
        stroke-miterlimit: 10;
      }

      .cls-1, .cls-4 {
        fill: #fff;
      }

      .cls-1, .cls-5 {
        stroke-width: 55px;
      }

      .cls-2, .cls-3, .cls-5, .cls-6, .cls-7, .cls-8 {
        fill: none;
      }

      .cls-3 {
        stroke-width: 9px;
      }

      .cls-4, .cls-6, .cls-8 {
        stroke-width: 15px;
      }

      .cls-9 {
        fill: #7ff1ea;
      }

      .cls-5, .cls-6 {
        stroke-linecap: round;
      }

      .cls-7 {
        stroke-width: 12px;
      }

      .cls-8 {
        stroke: #000;
      }

      .cls-10 {
        fill: #231815;
      }
    </style>
  </defs>
  <g id="_レイヤー_1-2" data-name="レイヤー 1">
    <g>
      <path class="cls-7" d="M657.93,768.88c0,66.62-75.75,120.62-169.2,120.62s-169.2-54-169.2-120.62"/>
      <path class="cls-7" d="M1041.15,768.88c0,66.62-75.75,120.62-169.2,120.62s-169.2-54-169.2-120.62"/>
      <circle class="cls-10" cx="475.07" cy="762.05" r="52.64"/>
      <path class="cls-10" d="M392.56,731.57c31.96-29.5,88.22-40.74,129.7-28.41,15.09,4.68,31.75,13.25,38.7,28.41-14.35-1.65-28.09-.03-42.13,1.31-41.61,3.99-84.78,8.97-126.27-1.31h0Z"/>
      <circle class="cls-10" cx="870.27" cy="762.05" r="52.64"/>
      <path class="cls-10" d="M786.57,719.46c33.38-27.89,90.12-36.34,130.95-21.98,14.84,5.42,31.05,14.8,37.25,30.29-14.25-2.35-28.06-1.42-42.14-.77-41.76,1.93-85.12,4.78-126.05-7.54h0Z"/>
      <path class="cls-10" d="M392.56,670.62c15.63,12.34,27,28.79,38.09,44.98,.7,1,1.52,1.98,2.25,2.82,.04,.08-.22,.02-.61,.17-.39,.17-.46,.4-.33,.35,.26-.1,.74-.72,1.14-1.34,1.69-2.66,3.49-5.81,5.94-8.19-.75,3.4-1.11,6.48-1.87,9.91-.25,.88-.44,1.78-1.21,2.97-5.08,6.58-14.2-5.83-17.53-9.39-10.46-12.9-19.7-26.71-25.88-42.28h0Z"/>
      <path class="cls-10" d="M923.32,709.41c3-14.52,15.03-31.34,27.87-38.79-2.96,14.54-15.06,31.31-27.87,38.79h0Z"/>
      <path class="cls-10" d="M786.57,600.21c35.11-26.22,95.71-26.06,130.88,0,0,0,0,2.3,0,2.3-9.38,.45-23.17,.7-32.72,.88-27.06,.4-54.7,.3-81.8-.32-5.45-.19-10.91-.3-16.36-.56v-2.3h0Z"/>
      <path class="cls-10" d="M451,600.21c35.11-26.22,95.71-26.06,130.88,0,0,0,0,2.3,0,2.3-9.38,.45-23.17,.7-32.72,.88-27.06,.4-54.7,.3-81.8-.32-5.45-.19-10.91-.3-16.36-.56v-2.3h0Z"/>
      <line class="cls-7" x1="1031.62" y1="808.8" x2="1117.28" y2="768.88"/>
      <line class="cls-7" x1="329.07" y1="808.8" x2="253.42" y2="768.88"/>
      <g>
        <g>
          <path class="cls-10" d="M237.01,713.77c-30.74,8.76-43.59,57.92-28.6,110.33,14.98,52.34,52.08,87.63,82.83,78.8l44.36,136.85-113.57,7s-18.48-98.78-68.04-126.15c-49.62-27.31-45.27-111.82-45.27-111.82l-88.34,35.35c12.97-9.27,26.72-31.13,15.76-82.11-104.62-95.6,72.58-225.58,72.58-225.58l41.9-66.48H71.16s89.44-32.88,99.36-115.71c9.92-82.76,155.66-92.68,208.65-148.98,10.96-11.67,24.45-18.55,38.79-21.99,51.17,27.7,99.88,36.32,122.91,21.73,.39,.13,.58,.26,.58,.26,0,0,5.9-3.37,16.28-8.56,27.05,3.57,68.56-10.83,110.26-39.3h.06c81.2-18.16,183.36-15.7,249.39,77.64,0,0,64.41,36.45,107.54,19.91,43.07-16.6-20.56,46.31-20.56,46.31,0,0,173.89,37.1,186.67,141.13,12.78,103.97,65.77,105.85,65.77,105.85h-83.02s109.48,151.71,53.18,220.65c29.84,19.91,66.22,19.91,66.22,19.91l-102.15,40.41-9.21-1.04c5.06-37.49-7.85-70.76-34.25-81.07h-4.48c-110.46-9.99-325.53-304.71-325.53-304.71,0,0-395.32,190.49-564.21,215.01l-16.41,56.36Z"/>
          <path class="cls-10" d="M1074.48,947.97l4.41-24.91c33.47,13.04,76.02-15.7,95.02-64.28,4.02-10.25,6.68-20.63,7.98-30.61l9.21,1.04s50.27,77.31,0,98.07v20.69h-116.62Z"/>
          <path class="cls-10" d="M668,157.4c-41.7,28.47-83.21,42.87-110.26,39.3,21.47-10.57,62.2-28.6,110.26-39.3Z"/>
          <path class="cls-9" d="M668,157.4c-48.06,10.7-88.79,28.73-110.26,39.3-2.53-.26-4.99-.78-7.26-1.43,8.82-15.18,2.59-38.2-14.72-63.04,12.52-27.76,38.98-60.12,74.72-88.6C674.23-7.28,765.23,.7,765.23,.7c0,0-12.52,90.48-76.34,141.33-6.88,5.51-13.88,10.64-20.82,15.37h-.06Z"/>
          <path class="cls-9" d="M535.75,132.23c17.32,24.84,23.54,47.87,14.72,63.04-6.81-1.95-12.39-5.32-16.34-10.31-9.53-11.93-8.24-30.87,1.62-52.73Z"/>
          <path class="cls-10" d="M417.97,183.28c52.02-12.65,116.29,18.42,122.91,21.73-23.03,14.59-71.73,5.97-122.91-21.73Z"/>
          <path class="cls-9" d="M417.97,183.28c-8.76-4.67-17.58-9.99-26.33-15.76-68.1-45.01-88.53-134-88.53-134,0,0,89.9-15.96,158,29.06,32.43,21.47,58.44,46.37,74.65,69.66-9.86,21.86-11.16,40.8-1.62,52.73,3.96,4.99,9.53,8.37,16.34,10.31-.32,.45-.58,.84-.84,1.3-2.27,3.37-5.19,6.16-8.76,8.43-6.62-3.31-70.89-34.38-122.91-21.73Z"/>
        </g>
        <g>
          <path class="cls-2" d="M20.38,844.13l88.34-35.35s-4.35,84.51,45.27,111.82c49.55,27.37,68.04,126.15,68.04,126.15l113.57-7-44.36-136.85c-30.74,8.82-67.84-26.46-82.83-78.8-14.98-52.41-2.14-101.57,28.6-110.33l16.41-56.36c168.89-24.52,564.21-215.01,564.21-215.01,0,0,215.07,294.72,325.53,304.71h4.48c26.4,10.31,39.3,43.59,34.25,81.07-1.3,9.99-3.96,20.37-7.98,30.61-19,48.58-61.55,77.31-95.02,64.28l-4.41,24.91h116.62v-20.69c50.27-20.76,0-98.07,0-98.07l102.15-40.41s-36.39,0-66.22-19.91c56.3-68.95-53.18-220.65-53.18-220.65h83.02s-52.99-1.88-65.77-105.85c-12.78-104.03-186.67-141.13-186.67-141.13,0,0,63.63-62.91,20.56-46.31-43.13,16.54-107.54-19.91-107.54-19.91-66.03-93.33-168.18-95.8-249.39-77.64h-.06c-48.06,10.7-88.79,28.73-110.26,39.3-10.38,5.19-16.28,8.56-16.28,8.56,0,0-.19-.13-.58-.26-6.62-3.31-70.89-34.38-122.91-21.73-14.33,3.44-27.82,10.31-38.79,21.99-52.99,56.3-198.73,66.22-208.65,148.98-9.92,82.83-99.36,115.71-99.36,115.71h79.45l-41.9,66.48s-177.2,129.98-72.58,225.58c10.96,50.98-2.79,72.84-15.76,82.11"/>
          <path class="cls-2" d="M20.38,844.13c-8.82,6.42-17.32,6.94-17.32,6.94l17.32-6.94Z"/>
        </g>
      </g>
      <g>
        <g>
          <ellipse class="cls-1" cx="1373.71" cy="446.48" rx="387.78" ry="406.23"/>
          <line class="cls-5" x1="1166.04" y1="813.21" x2="964.3" y2="1155.25"/>
        </g>
        <g>
          <path class="cls-4" d="M1053.76,1126.31l-43.01-27.72c-25.05-16.15-32.86-50.51-17.45-76.76l51.81-88.21c15.42-26.24,48.22-34.43,73.27-18.28l43.01,27.72c25.05,16.15,32.86,50.51,17.45,76.76l-51.81,88.21c-15.42,26.24-48.22,34.43-73.27,18.28Z"/>
          <ellipse class="cls-4" cx="1142.48" cy="883.11" rx="34.26" ry="52.95" transform="translate(-84.93 1643.76) rotate(-69.49)"/>
          <line class="cls-6" x1="1052.52" y1="944" x2="1125.59" y2="994.29"/>
          <line class="cls-6" x1="1027.14" y1="983.45" x2="1100.21" y2="1033.73"/>
          <line class="cls-6" x1="1007.86" y1="1024.88" x2="1080.93" y2="1075.17"/>
        </g>
      </g>
      <g>
        <path class="cls-8" d="M846.5,966.69c0,31.24-71.3,56.56-159.25,56.56s-159.25-25.32-159.25-56.56,71.3,.61,159.25,.61,159.25-31.84,159.25-.61Z"/>
        <line class="cls-8" x1="569.72" y1="954.62" x2="569.72" y2="1004.85"/>
        <line class="cls-8" x1="610.78" y1="964.82" x2="610.78" y2="1016.31"/>
        <line class="cls-8" x1="651.78" y1="965.82" x2="651.78" y2="1017.31"/>
        <line class="cls-8" x1="696.78" y1="965.82" x2="696.78" y2="1017.31"/>
        <line class="cls-8" x1="740.78" y1="965.82" x2="740.78" y2="1017.31"/>
        <line class="cls-8" x1="788.78" y1="953.25" x2="788.78" y2="1014.31"/>
      </g>
      <path class="cls-3" d="M1644.08,288.29c50.25,88.65,53.12,181.39,18.52,201-34.59,19.61-11.78-87.7-62.02-176.35-50.25-88.65-154.53-125.06-119.93-144.67,34.59-19.61,113.19,31.37,163.43,120.02Z"/>
      <path class="cls-3" d="M1677.29,577.44c-4.99,19.53-13.08,33.81-27.8,30.06-14.72-3.76-14.01-19.93-9.02-39.46,4.99-19.53,12.36-35.03,27.08-31.27s14.73,21.14,9.74,40.67Z"/>
    </g>
  </g>
</svg>