<?xml version="1.0" encoding="UTF-8"?><svg id="_レイヤー_2" xmlns="http://www.w3.org/2000/svg" viewBox="0 0 896.33 66.96"><defs><style>.cls-1{fill:#ffffe0;}</style></defs><g id="_レイヤー_1-2"><g><path class="cls-1" d="M6.76,2.2c6.08,0,6.46,4.56,6.46,9.04,0,2.81-.61,7.6-.61,9.88,0,.84,.08,1.37,.61,1.37,1.22,0,10.26-12.54,14.14-16.57,1.6-1.75,3.27-2.96,5.7-2.96,3.65,0,6.16,1.75,6.16,5.62,0,2.28-1.14,4.56-2.51,6.31-5.4,6.61-13.83,11.4-13.76,12.54,.08,.99,8.21,8.89,14.9,12.54,2.58,1.37,4.26,3.5,4.26,6.61,0,3.65-2.96,6-6.76,6-4.41,0-8.13-3.72-10.72-6.38-6.92-6.84-10.87-13.22-12.08-13.22-.3,0-.46,.23-.46,.76,0,1.37,.76,4.71,.76,11.32,0,5.17-1.22,7.9-6.76,7.9-4.71,0-6.08-3.34-6.08-7.68,0-6.31,.76-10.11,.76-17.78,0-6.92-.76-11.17-.76-15.81C0,6.31,.99,2.2,6.76,2.2Z"/><path class="cls-1" d="M81.47,31.54c-3.5,5.62-14.74,3.57-20.06,4.79-1.14,.3-1.82,.84-1.82,2.13,0,4.1,4.33,5.93,7.9,5.93,7.98,0,6.84-5.02,11.32-5.02,2.58,0,5.24,2.05,5.24,4.79,0,6.76-10.79,9.88-16.34,9.88-12.24,0-18.92-6.99-18.92-19.15,0-12.84,4.94-21.66,18.7-21.66,7.9,0,15.66,4.26,15.66,12.46,0,2.05-.61,4.1-1.67,5.85Zm-8.82-6.38c0-3.12-4.33-3.8-6.54-3.8-3.8,0-6.38,2.66-6.38,6.38,0,1.6,1.9,1.6,4.18,1.6,3.5,0,8.74-.08,8.74-4.18Z"/><path class="cls-1" d="M98.57,13.83c3.88,0,5.93,2.05,5.93,5.93,1.9-3.57,6-5.32,9.96-5.32,9.04,0,13.38,4.86,13.38,14.29,0,2.58-.23,4.86-.23,7.37,0,6.31,.84,7.22,.84,10.87,0,3.88-2.2,6.23-6.16,6.23-3.65,0-5.85-2.13-5.85-5.85,0-4.1,.46-7.9,.46-12.01s-.46-9.8-5.85-9.8c-4.18,0-6.84,2.66-6.84,6.99,0,7.14,.53,10.11,.53,14.67,0,3.72-2.28,6.16-6.16,6.16-3.19,0-6-2.51-6-5.7,0-3.5,.76-6.31,.76-13.53s-.91-10.94-.91-13.76c0-4.1,1.82-6.54,6.16-6.54Z"/><path class="cls-1" d="M144.55,.23c4.56,0,6.84,3.34,6.84,7.9,0,2.74-.61,5.4-.84,8.13-.3,2.89-.3,5.93-.3,8.82,0,.61,0,1.67,.46,1.67,.53,0,1.37-1.14,2.2-1.9,4.18-4.64,8.28-11.1,13.15-11.1,3.19,0,5.78,1.98,5.78,5.4,0,.15-.08,.46-.08,.61-.46,3.5-3.5,5.32-6.08,7.22-2.13,1.6-5.4,3.72-7.6,5.24,2.13,2.66,7.75,6.76,10.56,8.66,2.43,1.67,4.71,2.66,4.71,6.16,0,3.8-2.74,5.85-6.38,5.85-4.26,0-7.52-4.33-10.03-7.52-2.13-2.74-3.95-5.24-7.14-8.74,0,4.33,.38,6.61,.38,9.04,0,3.65-1.22,7.68-5.47,7.68-4.64,0-6.76-3.5-6.76-7.83,0-3.12,1.37-7.68,1.37-19.3,0-9.12-.84-13.07-.84-18.85,0-4.41,2.13-7.14,6.08-7.14Z"/><path class="cls-1" d="M199.42,53.58c-11.71,0-18.85-7.45-18.85-19.23s5.62-20.52,18.62-20.52c11.7,0,18.62,7.14,18.62,19.61,0,10.72-6.31,20.14-18.39,20.14Zm7.68-19.69c0-5.32-2.13-10.41-8.28-10.41-5.62,0-7.68,5.55-7.68,10.64,0,4.79,2.58,9.42,7.83,9.42s8.13-4.64,8.13-9.65Z"/><path class="cls-1" d="M250.8,15.66v-.91c0-2.96-.84-5.78-.84-8.74,0-3.72,2.13-6,6-6,5.4,0,6.61,4.79,6.61,9.35,0,5.7-.61,17.1-.61,25.01,0,6.61,1.06,8.82,1.06,12.77,0,4.33-2.36,6.23-6.76,6.23-4.79,0-4.64-4.33-5.93-4.33-.61,0-1.9,1.75-3.8,2.81-1.9,1.14-4.1,1.37-6.16,1.37-10.64,0-15.12-9.42-15.12-18.77,0-11.55,5.78-20.29,17.1-20.29,2.66,0,5.93,.38,8.44,1.52Zm.68,15.28c0-1.82-.08-3.65-.38-5.4-1.82-1.22-3.88-1.9-6.08-1.9-5.93,0-8.28,4.71-8.28,10.11,0,4.48,1.29,9.35,6.69,9.35,6.92,0,8.06-6.76,8.06-12.16Z"/><path class="cls-1" d="M291,53.43c-12.69,0-19.99-6.69-19.99-20.22,0-12.08,7.14-19.23,19-19.23,14.06,0,18.92,8.06,18.92,20.83,0,10.18-7.68,18.62-17.94,18.62Zm7.14-20.6c0-3.34-2.05-8.74-7.3-8.74-6.69,0-8.82,4.79-8.82,9.8s3.34,9.35,8.51,9.35,7.6-4.79,7.6-10.41Z"/><path class="cls-1" d="M381.44,28.05c0,13.23-7.22,25.39-25.01,25.39-13.45,0-17.94-6.16-17.94-20.14,0-3.95,.15-2.2,.15-6.84,0-2.66-.15-6-.15-8.82,0-5.4,1.29-9.58,3.72-11.86,2.89-2.74,8.74-3.88,12.46-3.88,17.63,0,26.75,8.51,26.75,26.15Zm-12.08-.15c0-7.9-3.65-15.05-12.92-15.05-5.32,0-6.38,3.88-6.38,8.36s0,7.75,.23,12.69c.3,4.94,1.06,8.74,6.92,8.74,9.2,0,12.16-7.07,12.16-14.74Z"/><path class="cls-1" d="M419.06,31.54c-3.5,5.62-14.75,3.57-20.07,4.79-1.14,.3-1.82,.84-1.82,2.13,0,4.1,4.33,5.93,7.9,5.93,7.98,0,6.84-5.02,11.33-5.02,2.58,0,5.24,2.05,5.24,4.79,0,6.76-10.79,9.88-16.34,9.88-12.24,0-18.92-6.99-18.92-19.15,0-12.84,4.94-21.66,18.7-21.66,7.91,0,15.66,4.26,15.66,12.46,0,2.05-.61,4.1-1.67,5.85Zm-8.82-6.38c0-3.12-4.33-3.8-6.54-3.8-3.8,0-6.38,2.66-6.38,6.38,0,1.6,1.9,1.6,4.18,1.6,3.5,0,8.74-.08,8.74-4.18Z"/><path class="cls-1" d="M426.66,19.38c0-3.65,2.66-5.47,6.16-5.47,4.64,0,5.93,3.12,6.38,7.14,0,.08,0,.46,.15,.46,.08,0,.15-.15,.3-.3,1.75-3.5,3.34-6.76,8.21-6.76,3.72,0,6.16,2.43,6.16,6.16,0,2.36-.91,4.86-2.96,6.08-3.19,2.05-6.92,0-9.8,3.04-1.75,1.82-2.13,3.12-2.13,5.7,0,4.41,.99,9.27,.99,11.4,0,3.8-1.82,6.31-5.62,6.31-4.56,0-6.92-2.28-6.92-6.92,0-4.94,.68-9.96,.68-14.9,0-6.38-1.6-7.98-1.6-11.93Z"/><path class="cls-1" d="M472.03,7.98c0,4.03-1.75,7.6-6.23,7.6s-7.6-3.19-7.6-7.52c0-4.79,2.36-6.84,6.92-6.84,4.18,0,6.92,2.89,6.92,6.76Zm-1.37,17.56c0,1.14-.23,5.78-.23,6.61,0,4.71,.91,8.74,.91,12.84,0,5.09-.99,8.06-6.54,8.06-4.86,0-5.93-2.43-5.93-6.99,0-2.58,.68-5.09,.68-7.6,0-3.65-.68-7.22-.68-10.87,0-3.95,1.06-7.9,5.7-7.9,4.03,0,6.08,1.9,6.08,5.85Z"/><path class="cls-1" d="M500.22,27.59c1.82-7.3,1.67-13.15,7.68-13.15,3.72,0,6.08,2.58,6.08,6.31s-3.27,11.7-4.64,15.28c-1.67,4.1-3.8,10.03-6.38,13.83-1.67,2.36-4.48,3.5-7.37,3.5-4.64,0-7.07-2.13-8.97-6.31-2.28-4.94-3.95-9.58-6.16-14.44-1.37-3.12-3.88-9.27-3.88-12.77s2.96-5.4,6.38-5.4c4.86,0,5.47,5.32,6.46,8.44,.76,2.58,4.64,17.94,6.61,17.94,1.52,0,3.88-11.78,4.18-13.23Z"/><path class="cls-1" d="M552.82,28.2c0,3.19-.61,5.78-.61,8.97s2.05,5.47,2.05,9.35c0,4.71-2.36,7.07-7.07,7.07-6,0-5.85-4.71-7.52-4.71-1.06,0-2.05,4.64-9.2,4.64-9.2,0-12.69-9.35-12.69-17.33,0-13.91,6.84-22.12,20.37-22.12,8.97,0,14.67,5.17,14.67,14.14Zm-19.46,14.74c6.92,0,8.66-6.92,8.66-13.76,0-3.57-1.29-5.24-4.94-5.24-5.85,0-8.82,5.85-8.82,11.1,0,3.57,.91,7.9,5.09,7.9Z"/><path class="cls-1" d="M559.27,19.38c0-3.65,2.66-5.47,6.16-5.47,4.64,0,5.93,3.12,6.38,7.14,0,.08,0,.46,.15,.46,.08,0,.15-.15,.3-.3,1.75-3.5,3.34-6.76,8.21-6.76,3.72,0,6.16,2.43,6.16,6.16,0,2.36-.91,4.86-2.96,6.08-3.19,2.05-6.92,0-9.8,3.04-1.75,1.82-2.13,3.12-2.13,5.7,0,4.41,.99,9.27,.99,11.4,0,3.8-1.82,6.31-5.62,6.31-4.56,0-6.92-2.28-6.92-6.92,0-4.94,.68-9.96,.68-14.9,0-6.38-1.6-7.98-1.6-11.93Z"/><path class="cls-1" d="M602.97,25.23c1.52,5.4,2.43,9.73,4.33,14.14,.08,.23,.68,1.44,1.29,1.44,.84,0,1.9-4.79,2.13-6,.91-4.03,1.82-8.36,2.51-12.46,.61-3.34,1.98-7.9,6.23-7.9,3.95,0,6.46,2.05,6.46,6.08,0,5.47-4.48,13.38-6.61,19.61-1.6,4.33-3.12,8.89-4.86,13.07-3.5,8.21-7.45,13.76-16.72,13.76-3.95,0-8.74-2.13-8.74-6.76,0-3.5,1.82-5.55,5.4-5.55,1.37,0,2.89,1.37,4.26,1.37,2.36,0,3.5-1.82,3.5-4.18,0-6.31-13.22-22.73-13.22-31.01,0-4.33,2.36-6.23,6.08-6.23,5.78,0,6.76,6.46,7.98,10.64Z"/><path class="cls-1" d="M645.91,41.57c0-3.27,2.51-5.32,5.7-5.32,4.26,0,6.31,6.31,13.15,6.31,3.34,0,7.75-.99,7.75-5.09,0-5.4-10.26-4.48-18.09-8.13-4.86-2.13-7.52-6.84-7.52-12.01,0-11.17,8.97-15.5,18.62-15.5,4.48,0,11.32,1.29,14.29,5.17,.91,1.14,1.44,2.36,1.44,3.72,0,2.89-2.36,5.7-5.4,5.7-3.19,0-6.46-3.8-12.31-3.8-2.36,0-5.62,.76-5.62,3.72,0,10.11,26.3,.46,26.3,21.28,0,11.17-10.18,15.81-19.99,15.81-7.68,0-18.32-2.96-18.32-11.86Z"/><path class="cls-1" d="M721.84,31.54c-3.5,5.62-14.75,3.57-20.07,4.79-1.14,.3-1.82,.84-1.82,2.13,0,4.1,4.33,5.93,7.9,5.93,7.98,0,6.84-5.02,11.33-5.02,2.58,0,5.24,2.05,5.24,4.79,0,6.76-10.79,9.88-16.34,9.88-12.24,0-18.92-6.99-18.92-19.15,0-12.84,4.94-21.66,18.7-21.66,7.9,0,15.66,4.26,15.66,12.46,0,2.05-.61,4.1-1.67,5.85Zm-8.82-6.38c0-3.12-4.33-3.8-6.54-3.8-3.8,0-6.38,2.66-6.38,6.38,0,1.6,1.9,1.6,4.18,1.6,3.5,0,8.74-.08,8.74-4.18Z"/><path class="cls-1" d="M729.74,19.38c0-3.65,2.66-5.47,6.16-5.47,4.64,0,5.93,3.12,6.38,7.14,0,.08,0,.46,.15,.46,.08,0,.15-.15,.3-.3,1.75-3.5,3.34-6.76,8.21-6.76,3.72,0,6.16,2.43,6.16,6.16,0,2.36-.91,4.86-2.96,6.08-3.19,2.05-6.92,0-9.8,3.04-1.75,1.82-2.13,3.12-2.13,5.7,0,4.41,.99,9.27,.99,11.4,0,3.8-1.82,6.31-5.62,6.31-4.56,0-6.92-2.28-6.92-6.92,0-4.94,.68-9.96,.68-14.9,0-6.38-1.6-7.98-1.6-11.93Z"/><path class="cls-1" d="M770.4,17.33c1.82,4.1,3.5,11.86,4.56,16.34,.76,3.19,2.58,7.07,3.65,7.07s1.52-1.75,1.75-2.51c1.52-4.03,3.27-18.85,6.46-22.12,.99-1.06,2.89-1.6,4.33-1.6,3.34,0,5.25,2.89,5.25,6,0,3.95-5.09,15.66-6.61,20.29-1.98,6.46-4.18,12.16-11.1,12.16-.91,0-2.81-.08-3.72-.38-4.71-1.22-6.76-8.13-8.28-12.24-3.04-7.83-6.99-13.76-6.99-20.14,0-4.1,2.66-5.47,6.31-5.47,1.98,0,3.5,.61,4.41,2.58Z"/><path class="cls-1" d="M816.23,7.98c0,2.96-1.6,7.68-5.17,7.68-3.95,0-8.59-1.06-8.59-5.93,0-6.31,2.2-8.13,8.21-8.13,3.88,0,5.55,2.81,5.55,6.38Zm-12.92,17.1c0-4.18,2.13-5.17,5.7-5.17,3.34,0,5.85,1.06,5.85,4.64,0,5.09-.23,8.74-.23,12.39,0,3.27,1.14,5.47,1.14,8.36,0,4.26-1.67,7.83-6.46,7.83s-6.31-1.82-6.31-6.61,.53-9.65,.53-14.44c0-2.2-.23-4.79-.23-6.99Z"/><path class="cls-1" d="M855.75,23.26c0,3.04-2.66,4.86-5.47,4.86-4.56,0-4.41-4.48-8.97-4.48-6,0-8.59,4.18-8.59,10.03,0,5.02,2.36,9.88,8.13,9.88,6.76,0,6.54-5.47,11.32-5.47,2.81,0,5.02,2.2,5.02,5.02,0,6.99-9.2,10.34-15.66,10.34-14.06,0-19.15-8.59-19.15-20.07,0-12.31,8.13-19.46,19.3-19.46,5.85,0,14.06,2.74,14.06,9.35Z"/><path class="cls-1" d="M895.87,25.99c0,9.65-10.03,11.7-17.79,11.7-1.29,0-2.58-.23-3.95-.23-.61,0-1.37,.15-1.37,.99,0,.38,.08,.76,.15,1.06,1.29,3.57,3.8,5.24,7.52,5.24,6.23,0,6.54-5.09,11.02-5.09,2.43,0,4.86,1.67,4.86,4.41,0,7.37-10.34,9.88-16.11,9.88-12.31,0-18.85-8.06-18.85-20.29s7.22-20.37,19.23-20.37c7.83,0,15.28,5.32,15.28,12.69Zm-10.41-.76c0-2.66-2.66-3.5-4.86-3.5-3.65,0-7.22,1.75-7.22,6,0,2.43,1.67,2.74,3.72,2.74,3.27,0,8.36-1.22,8.36-5.24Z"/></g></g></svg>