<!--?xml version="1.0" encoding="utf-8"?-->
<svg version="1.1" x="0px" y="0px" id="iconz016103801792915000" viewBox="0 0 512 512" xmlns="http://www.w3.org/2000/svg" style="enable-background:new 0 0 512 512;" xml:space="preserve"><style type="text/css">
.baseF{fill:#FFDFCA}
.baseB{fill:#232256}
.eyeF{fill:#FFFFFF}
.eyeB{fill:#232256}
.eyeT{fill:#BDC7D6}
.hairF{fill:#FFFFFF}
.hairB{fill:#232256}
.hairU{fill:#5E7AA5}
.hairT{fill:#BDC7D6}
.noseF{fill:#FFDFCA}
.noseB{fill:#232256}
.noseU{fill:#5E7AA5}
.mayugeB{fill:#232256}
.mayugeU{fill:#5E7AA5}
.mayugeT{fill:#BDC7D6}
.mayugeF{fill:#FFFFFF}
.mouthF{fill:#FFFFFF}
.mouthB{fill:#232256}
.mouthT{fill:#BDC7D6}
.mouthU{fill:#5E7AA5}
.hatF{fill:#FFFFFF}
.hatB{fill:#232256}
.hatU{fill:#5E7AA5}
.hatT{fill:#BDC7D6}
.higeU{fill:#5E7AA5}
.higeB{fill:#232256}
.higeF{fill:#FFFFFF}
.bodyF{fill:#FFFFFF}
.bodyB{fill:#232256}
.bodyU{fill:#5E7AA5}
.bodyT{fill:#BDC7D6}
.bodyS{fill:#8DA6C9}
.bodyH{fill:#FFDFCA}
.glassF{fill:#FFFFFF}
.glassB{fill:#232256}
.glassT{fill:#BDC7D6}
.glassU{fill:#5E7AA5}
.kirakiraF{fill:#FFFFFF}
.kirakiraB{fill:#232256}
.kirakiraU{fill:#5E7AA5}
.kirakiraT{fill:#BDC7D6}
.kirakiraH{fill:#FFDFCA}
.backF{fill:#FFFFFF}
.backB{fill:#232256}
.backU{fill:#5E7AA5}
.backS{fill:#8DA6C9}
.backA{fill:#FFE38B}
.backG{fill:#EEEEEF}
.backC{fill:#19DB9F}
.backD{fill:#DBBCA1}
</style>
<g class="icosvg">
<g>
	<path class="bodyF" d="M462.899,638.451c0,0,0-42.134,0-73.971c0-73.683-14.923-114.143-52.973-150.633   c-35.17-33.731-76.795-50.156-76.795-50.156c-18.127-9.741-20.55-10.697-77.133-11.47c-56.585,0.773-59.006,1.73-77.135,11.47   c0,0-41.625,16.425-76.795,50.156c-38.051,36.49-52.971,76.95-52.971,150.633c0,31.837,0,73.971,0,73.971"></path>
	<path class="bodyB" d="M468.184,564.488c0,31.824,0,73.968,0,73.968c0,2.904-2.376,5.28-5.28,5.28c-2.928,0-5.28-2.376-5.28-5.28   c0,0,0-42.144,0-73.968c0-36.504-3.72-64.416-11.904-87.504c-8.232-23.088-20.88-41.496-39.456-59.328   c-33.192-31.896-72.84-48.192-74.976-49.032l-0.096-0.024l-0.288-0.12l-0.264-0.144c-4.536-2.424-7.92-4.224-11.208-5.544   c-3.24-1.296-6.432-2.208-10.92-2.928c-0.096,0-0.216-0.024-0.336-0.048c-3.096-0.48-6.816-0.864-11.448-1.176   c-3.072-0.192-6.552-0.36-10.536-0.504c-7.872-0.288-17.712-0.48-30.192-0.648c-12.456,0.168-22.296,0.36-30.168,0.648   c-3.984,0.144-7.464,0.312-10.536,0.504c-4.8,0.312-8.616,0.696-11.784,1.224c-1.056,0.144-2.016,0.336-2.952,0.528   c-3.048,0.648-5.496,1.416-7.992,2.4c-3.288,1.32-6.672,3.12-11.208,5.544l-0.264,0.144l-0.288,0.12l-0.096,0.024l-0.312,0.144   c-0.312,0.12-0.744,0.312-1.32,0.552c-1.152,0.48-2.88,1.248-5.04,2.256c-4.344,2.016-10.536,5.064-17.808,9.144   c-14.52,8.16-33.36,20.496-50.52,36.936c-18.552,17.832-31.2,36.24-39.432,59.328c-8.208,23.088-11.904,51-11.904,87.504   c0,31.824,0,73.968,0,73.968c0,2.904-2.376,5.28-5.28,5.28s-5.28-2.376-5.28-5.28c0,0,0-42.144,0-73.968   c0-37.2,3.744-66.336,12.528-91.032c8.76-24.696,22.584-44.76,42.072-63.408c34.44-33,74.4-49.584,78.192-51.144   c4.416-2.376,8.088-4.32,12.024-5.904c4.032-1.608,8.28-2.808,13.56-3.624c5.784-0.888,12.84-1.416,22.68-1.776   c3.072-0.12,6.432-0.216,10.128-0.288h0.024c3.096-0.072,6.408-0.144,9.984-0.192c3.408-0.072,7.032-0.12,10.92-0.168h0.144   c3.888,0.048,7.488,0.12,10.896,0.168c3.576,0.048,6.912,0.12,10.008,0.192H277c3.696,0.096,7.056,0.192,10.152,0.312   c12.072,0.408,19.944,1.104,26.424,2.448c3.624,0.744,6.768,1.728,9.792,2.928c3.936,1.584,7.584,3.528,12.024,5.904   c3.792,1.56,43.728,18.144,78.192,51.144c19.488,18.648,33.312,38.712,42.072,63.408   C464.416,498.152,468.184,527.288,468.184,564.488z"></path>
	<path class="bodyF" d="M329.92,377.696L256,526.568l-73.92-148.872l33.216-19.056L235,347.312h0.024   c3.096-0.072,6.408-0.144,9.984-0.192c3.408-0.072,7.032-0.12,10.92-0.168h0.144c3.888,0.048,7.488,0.12,10.896,0.168   c3.576,0.048,6.912,0.12,10.008,0.192H277l19.728,11.328L329.92,377.696z"></path>
	<path class="bodyB" d="M336.232,375.776L256,537.368l-80.232-161.592l27.744-15.912l21.36-12.264   c3.072-0.12,6.432-0.216,10.128-0.288h0.024c3.096-0.072,6.408-0.144,9.984-0.192l-19.176,11.016l-37.44,21.48L256,515.792   l67.608-136.176l-37.416-21.48l-19.224-11.016c3.576,0.048,6.912,0.12,10.008,0.192H277c3.696,0.096,7.056,0.192,10.152,0.312   l21.36,12.24L336.232,375.776z"></path>
	<path class="bodyB" d="M369.371,437.978c-0.898-4.018-2.389-8.974-4.133-14.26c-5.224-15.815-12.729-34.436-12.747-34.485   c-0.991-2.459-3.787-3.649-6.246-2.659c-2.459,0.991-3.649,3.787-2.659,6.246l0,0c0.001,0.002,0.265,0.659,0.737,1.85   c1.651,4.166,5.797,14.765,9.505,25.336c1.853,5.282,3.598,10.563,4.856,14.972c0.629,2.202,1.135,4.187,1.47,5.803   c0.292,1.375,0.435,2.483,0.465,3.092c-0.3,0.288-0.834,0.748-1.582,1.242c-2.01,1.374-5.285,3.073-8.937,4.713   c-5.493,2.476-11.888,4.898-16.875,6.681c-2.495,0.893-4.642,1.628-6.16,2.139c-0.759,0.255-1.361,0.454-1.771,0.589   c-0.41,0.135-0.619,0.202-0.619,0.202c-2.524,0.811-3.912,3.515-3.101,6.039c0.811,2.524,3.515,3.912,6.039,3.101   c0.017-0.006,0.796-0.257,2.098-0.692c0.582,1.369,1.413,3.386,2.359,5.773c1.919,4.837,4.328,11.231,6.229,17.082   c0.95,2.922,1.772,5.711,2.338,8.052c0.515,2.082,0.782,3.823,0.823,4.746c-1.023,0.969-2.945,2.694-5.514,4.945   c-9.777,8.572-28.614,24.587-44.977,38.431c-8.184,6.924-15.754,13.31-21.278,17.965c-2.762,2.327-5.012,4.222-6.572,5.534   c-1.56,1.313-2.426,2.041-2.428,2.043c-2.029,1.706-2.291,4.734-0.585,6.763c1.706,2.029,4.734,2.291,6.763,0.585   c0.003-0.003,19.679-16.543,39.776-33.588c10.049-8.523,20.203-17.17,28.064-23.947c3.932-3.389,7.289-6.31,9.788-8.526   c1.251-1.109,2.285-2.041,3.087-2.784c0.402-0.373,0.745-0.697,1.042-0.989c0.304-0.303,0.534-0.529,0.851-0.903   c0.848-1.038,1.171-2.03,1.367-2.863c0.187-0.844,0.233-1.594,0.236-2.337c-0.006-1.622-0.246-3.251-0.605-5.064   c-0.634-3.15-1.68-6.795-2.911-10.621c-1.847-5.728-4.116-11.817-6.031-16.703c-0.958-2.443-1.826-4.581-2.51-6.222   c-0.083-0.2-0.155-0.369-0.233-0.554c2.493-0.912,5.209-1.939,7.965-3.04c4.871-1.951,9.823-4.109,13.878-6.318   c2.033-1.113,3.842-2.225,5.395-3.458c0.778-0.622,1.498-1.275,2.162-2.058c0.655-0.787,1.294-1.712,1.697-3.019l0.002-0.007   c0.294-1.016,0.338-1.831,0.345-2.641C370.221,442.249,369.879,440.298,369.371,437.978z"></path>
	<path class="bodyB" d="M251.301,572.457c-0.004-0.003-1.228-1.033-3.386-2.848c-7.55-6.355-26.476-22.302-43.869-37.089   c-8.696-7.393-17.009-14.496-23.316-19.957c-3.152-2.729-5.804-5.05-7.736-6.776c-0.965-0.862-1.751-1.577-2.313-2.103   c-0.066-0.062-0.095-0.092-0.155-0.149c0.031-0.627,0.156-1.63,0.404-2.842c0.507-2.54,1.468-5.947,2.636-9.564   c1.752-5.436,3.967-11.389,5.832-16.145c0.932-2.379,1.778-4.461,2.433-6.031c0.162-0.389,0.313-0.746,0.449-1.068   c1.295,0.433,2.079,0.686,2.098,0.693c2.524,0.811,5.227-0.577,6.039-3.1c0.811-2.524-0.577-5.227-3.1-6.039   c-0.001,0-0.131-0.042-0.396-0.129c-1.981-0.647-11.127-3.682-19.866-7.268c-4.361-1.787-8.633-3.725-11.73-5.475   c-1.543-0.867-2.793-1.698-3.529-2.311c-0.173-0.142-0.31-0.268-0.421-0.375c0.033-0.706,0.226-2.093,0.618-3.811   c0.766-3.449,2.188-8.226,3.879-13.339c2.537-7.684,5.678-16.186,8.179-22.744c1.251-3.28,2.342-6.077,3.12-8.051   c0.389-0.987,0.699-1.768,0.912-2.302c0.213-0.533,0.325-0.813,0.326-0.814c0.99-2.459-0.2-5.255-2.659-6.246   c-2.459-0.991-5.255,0.2-6.246,2.659l0,0c-0.012,0.032-4.376,10.864-8.759,23.001c-2.193,6.072-4.39,12.465-6.063,18.054   c-0.837,2.798-1.544,5.392-2.057,7.692c-0.507,2.32-0.849,4.27-0.862,6.185c0.007,0.805,0.048,1.621,0.348,2.65   c0.402,1.303,1.041,2.228,1.696,3.014c1.246,1.453,2.684,2.525,4.345,3.617c2.896,1.875,6.505,3.665,10.398,5.402   c4.858,2.16,10.137,4.201,14.657,5.856c-0.597,1.419-1.344,3.239-2.207,5.414c-1.972,4.973-4.435,11.501-6.435,17.654   c-1,3.08-1.885,6.063-2.539,8.76c-0.646,2.72-1.095,5.069-1.11,7.334c0.002,0.743,0.049,1.492,0.236,2.337   c0.196,0.834,0.52,1.828,1.37,2.867c0.313,0.371,0.543,0.597,0.848,0.899c1.125,1.103,3.106,2.88,5.889,5.326   c9.686,8.508,28.627,24.612,45.179,38.618c16.548,14.002,30.686,25.887,30.688,25.889c2.029,1.706,5.057,1.444,6.763-0.585   C253.592,577.191,253.33,574.163,251.301,572.457z"></path>
	<path class="bodyB" d="M272.125,421.219v72.112l-16.507,33.248l-15.75-31.725v-73.636l4.802,1.17c7.441,1.812,15.211,1.812,22.652,0   L272.125,421.219z"></path>
</g>

<g>
	<g>
		<path class="baseF" d="M370.823,211.356h-1.083C365.238,142.075,331.823,86.563,256,86.563s-109.238,55.512-113.74,124.793h-1.083    c-14.838-8.773-36.38,8.079-32.988,28.425c7.12,42.712,9.938,53.302,22.629,59.714c6.476,3.272,12.413,3.389,12.413,3.389h1.277    c4.228,26.864,12.675,46.636,23.503,61.72c16.545,23.044,59.074,47.137,87.989,47.137c28.915,0,71.445-24.094,87.989-47.137    c10.828-15.084,19.275-34.856,23.503-61.72h1.277c0,0,5.937-0.117,12.413-3.389c12.689-6.413,15.509-17.002,22.629-59.714    C407.203,219.435,385.661,202.583,370.823,211.356z"></path>
		<path class="baseB" d="M400.197,213.073c-6.568-6.81-16.304-11.004-25.737-8.755C368.747,134.944,329.975,80.52,256,81.287    c-74.235-0.864-112.896,54.299-118.444,123.035c-19.995-4.34-38.258,16.759-34.57,36.339l-0.001-0.011    c3.584,21.412,6.032,34.84,9.469,44.398c3.786,12.939,15.561,21.371,27.56,22.815c3.49,21.313,12.227,44.344,23.712,59.82    c19.76,25.929,59.709,48.411,92.275,49.338c32.904-0.946,72.797-23.732,92.275-49.337c11.483-15.481,20.216-38.503,23.711-59.821    c20.682-3.122,27.736-17.588,31.679-37.926c1.673-7.721,3.343-17.25,5.35-29.287l0.001-0.009    C410.841,230.515,406.844,219.747,400.197,213.073z M398.606,238.914c-3.537,21.3-6.057,34.522-8.984,42.54    c-2.885,8.629-7.803,13.034-15.94,15.273c0.934-7.446,1.571-15.359,1.868-23.806c0.102-2.913-2.176-5.356-5.089-5.458    c-2.912-0.102-5.355,2.176-5.457,5.089c-0.741,21.097-3.625,38.545-8.037,53.102c-7.684,23.201-15.096,37.185-32.968,51.943    c-17.576,14.384-46.071,28.758-67.999,28.868c-29.641-1.047-66.146-22.057-83.704-44.938c-6.917-9.64-12.849-21.314-17.265-35.874    c-4.412-14.557-7.295-32.005-8.034-53.102c-0.347-6.881-10.641-6.633-10.547,0.37h-0.001c0.296,8.449,0.935,16.366,1.869,23.813    c-14.102-3.734-16.335-14.595-19.67-29.034c-1.611-7.396-3.355-17.378-5.343-29.308l0.087,0.509    c-2.538-12.803,10.263-28.169,23.402-23.817c-0.209,4.296-0.347,8.62-0.348,12.994c0,2.914,2.363,5.277,5.277,5.277    c2.913,0,5.277-2.363,5.277-5.277l0,0c-0.579-71.264,30.158-137.1,109.001-136.238c44.048-0.349,77.728,20.487,94.871,59.825    c9.632,21.733,14.134,48.146,14.128,76.414c0,2.914,2.362,5.277,5.277,5.277c2.913,0,5.277-2.363,5.277-5.277    c0-4.374-0.12-8.706-0.329-13.001C388.325,210.72,401.15,226.151,398.606,238.914z"></path>
	</g>
</g>

<g>
	<path class="hairB" d="M256.001,64.599C126.473,28.805,78.947,227.756,89.84,290.006s82.312,79.768,72.696,66.188
		c-9.615-13.58-12.716-29.583-12.716-29.583l17.832,0.994c0,0-9.338-6.225-9.338-48.129c0-24.443,11.121-47.297,20.388-62.098
		c9.748-15.57,17.245-32.438,22.868-49.927l3.258-10.132c-0.544,9.991,13.462,73.39,36.806,86.044H268.1
		c-11.31-16.113-17.118-44.484-17.118-44.484s13.093,27.14,28.513,44.484h23.232c-5.227-13.948-7.035-28.111-7.035-28.111
		s9.662,13.873,20.865,28.111h18.454l-14.006-43.022c0,0,32.681,37.233,32.681,79.134c0,41.904-9.337,48.129-9.337,48.129
		l17.832-0.994c0,0-3.101,16.003-12.716,29.583s61.803-3.938,72.697-66.188C433.054,227.756,385.528,28.805,256.001,64.599z"></path>
</g>


<g>
	<path class="mouthB" d="M283.961,345.476c-1.831-0.397-3.637,0.765-4.033,2.596l0-0.001c-0.311,1.373-0.979,2.366-2.165,3.35
		c-1.759,1.46-4.775,2.57-8.023,3.169c-3.243,0.616-6.672,0.782-9.243,0.78c-1.275,0.001-2.342-0.039-3.079-0.077
		c-0.369-0.019-0.656-0.038-0.845-0.052l-0.21-0.016l-0.054-0.005l-0.306-0.028l-0.307,0.028l-0.054,0.005
		c-0.312,0.026-1.904,0.146-4.136,0.145c-3.425,0.009-8.391-0.308-12.376-1.543c-1.993-0.608-3.712-1.44-4.891-2.406
		c-1.186-0.984-1.854-1.977-2.165-3.35c-0.397-1.83-2.203-2.992-4.033-2.595c-1.83,0.397-2.993,2.203-2.595,4.033
		c0.64,3.018,2.388,5.467,4.516,7.176c3.211,2.58,7.185,3.824,11.041,4.57c3.861,0.729,7.651,0.897,10.505,0.899
		c2.221-0.001,3.854-0.105,4.496-0.154c0.641,0.049,2.274,0.153,4.495,0.154c3.809-0.009,9.264-0.287,14.367-1.842
		c2.551-0.788,5.044-1.9,7.178-3.627c2.128-1.709,3.875-4.158,4.516-7.177C286.954,347.678,285.791,345.872,283.961,345.476z"></path>
</g>


<g>
	<path class="noseB" d="M265.128,318.582c0,2.602-3.748,4.711-8.367,4.711c-4.622,0-8.37-2.109-8.37-4.711s3.748,0,8.37,0
		C261.381,318.582,265.128,315.981,265.128,318.582z"></path>
</g>


<g>
	<g>
		<path class="eyeB" d="M224.351,270.214c0.581-0.685,0.945-1.559,0.945-2.522c0-2.16-1.768-3.928-3.928-3.928h-19.76
			c-2.161,0-3.928,1.768-3.928,3.928c0,0.963,0.365,1.837,0.945,2.522c-0.581,0.685-0.945,1.559-0.945,2.522
			c0,0.963,0.365,1.836,0.945,2.521c-0.581,0.686-0.945,1.559-0.945,2.522c0,2.161,1.768,3.928,3.928,3.928h19.76
			c2.161,0,3.928-1.767,3.928-3.928c0-0.963-0.365-1.836-0.945-2.522c0.581-0.685,0.945-1.559,0.945-2.521
			C225.297,271.773,224.932,270.899,224.351,270.214z"></path>
		<path class="eyeB" d="M313.375,270.214c0.581-0.685,0.945-1.559,0.945-2.522c0-2.16-1.768-3.928-3.928-3.928h-19.76
			c-2.16,0-3.928,1.768-3.928,3.928c0,0.963,0.365,1.837,0.945,2.522c-0.581,0.685-0.945,1.559-0.945,2.522
			c0,0.963,0.365,1.836,0.945,2.521c-0.581,0.686-0.945,1.559-0.945,2.522c0,2.161,1.768,3.928,3.928,3.928h19.76
			c2.161,0,3.928-1.767,3.928-3.928c0-0.963-0.365-1.836-0.945-2.522c0.581-0.685,0.945-1.559,0.945-2.521
			C314.321,271.773,313.956,270.899,313.375,270.214z"></path>
	</g>
</g>


<g>
	<g>
		<path class="mayugeB" d="M187.003,250.732c11.158-6.921,30.144-9.299,47.41-0.884c1.276,0.622,2.528-0.922,1.648-2.035
			c-5.164-6.528-12.245-13.342-31.361-11.455C187.508,238.055,183.208,252.85,187.003,250.732z"></path>
		<path class="mayugeB" d="M324.998,250.732c-11.158-6.921-30.144-9.299-47.41-0.884c-1.276,0.622-2.528-0.922-1.648-2.035
			c5.164-6.528,12.245-13.342,31.361-11.455C324.493,238.055,328.792,252.85,324.998,250.732z"></path>
	</g>
</g>

</g></svg>