<svg width="84" height="84" viewBox="0 0 84 84" fill="none" xmlns="http://www.w3.org/2000/svg">
<circle cx="42" cy="42" r="42" fill="#1A1A1A"/>
<path d="M21.5222 39.3265H26.8022V53.6265H28.9142V39.3265H34.1722V37.6105H21.5222V39.3265ZM39.2762 52.8565C40.3909 53.6192 41.6376 54.0005 43.0162 54.0005C44.3949 54.0005 45.6416 53.6265 46.7562 52.8785C47.8562 52.1599 48.7729 51.1625 49.5062 49.8865C50.1956 48.6252 50.5402 47.2025 50.5402 45.6185C50.5402 44.0345 50.1956 42.5899 49.5062 41.2845C48.8022 40.0085 47.8856 39.0039 46.7562 38.2705C45.6269 37.5372 44.3802 37.1705 43.0162 37.1705C41.6522 37.1705 40.3982 37.5592 39.2542 38.3365C38.1249 39.1139 37.2156 40.1479 36.5262 41.4385C35.8369 42.7292 35.4922 44.1299 35.4922 45.6405C35.4922 47.1659 35.8369 48.5592 36.5262 49.8205C37.2156 51.0965 38.1322 52.1085 39.2762 52.8565ZM43.1042 38.8645C44.6149 38.8792 45.8469 39.5099 46.8002 40.7565C47.7389 42.0032 48.2082 43.6239 48.2082 45.6185C48.2082 47.6132 47.7169 49.2119 46.7342 50.4145C45.7516 51.6612 44.5049 52.2845 42.9942 52.2845C41.4689 52.2845 40.2222 51.6539 39.2542 50.3925C38.3009 49.1312 37.8242 47.5545 37.8242 45.6625C37.8242 43.7559 38.3302 42.1499 39.3422 40.8445C40.3396 39.5245 41.5862 38.8645 43.0822 38.8645H43.1042ZM64.7067 42.3845C64.7067 41.1525 64.428 40.2139 63.8707 39.5685C62.756 38.3365 61.3847 37.6912 59.7567 37.6325C59.6247 37.6179 59.2287 37.6105 58.5687 37.6105H52.6067V53.6265H54.7187V47.4885C57.1533 47.4885 58.796 47.4739 59.6467 47.4445C61.744 47.3272 63.1593 46.6525 63.8927 45.4205C64.4353 44.5259 64.7067 43.5872 64.7067 42.6045V42.3845ZM54.7187 45.9925V39.1065H59.2067C60.4973 39.1065 61.414 39.5759 61.9567 40.5145C62.2207 40.9399 62.3527 41.6292 62.3527 42.5825C62.3527 43.5359 62.228 44.1812 61.9787 44.5185C61.26 45.5012 60.2407 45.9925 58.9207 45.9925H54.7187Z" fill="white"/>
</svg>
