<svg width="84" height="84" viewBox="0 0 84 84" fill="none" xmlns="http://www.w3.org/2000/svg">
<circle cx="42" cy="42" r="42" fill="#1A1A1A"/>
<path d="M21.5222 36.3265H26.8022V50.6265H28.9142V36.3265H34.1722V34.6105H21.5222V36.3265ZM39.2762 49.8565C40.3909 50.6192 41.6376 51.0005 43.0162 51.0005C44.3949 51.0005 45.6416 50.6265 46.7562 49.8785C47.8562 49.1599 48.7729 48.1625 49.5062 46.8865C50.1956 45.6252 50.5402 44.2025 50.5402 42.6185C50.5402 41.0345 50.1956 39.5899 49.5062 38.2845C48.8022 37.0085 47.8856 36.0039 46.7562 35.2705C45.6269 34.5372 44.3802 34.1705 43.0162 34.1705C41.6522 34.1705 40.3982 34.5592 39.2542 35.3365C38.1249 36.1139 37.2156 37.1479 36.5262 38.4385C35.8369 39.7292 35.4922 41.1299 35.4922 42.6405C35.4922 44.1659 35.8369 45.5592 36.5262 46.8205C37.2156 48.0965 38.1322 49.1085 39.2762 49.8565ZM43.1042 35.8645C44.6149 35.8792 45.8469 36.5099 46.8002 37.7565C47.7389 39.0032 48.2082 40.6239 48.2082 42.6185C48.2082 44.6132 47.7169 46.2119 46.7342 47.4145C45.7516 48.6612 44.5049 49.2845 42.9942 49.2845C41.4689 49.2845 40.2222 48.6539 39.2542 47.3925C38.3009 46.1312 37.8242 44.5545 37.8242 42.6625C37.8242 40.7559 38.3302 39.1499 39.3422 37.8445C40.3396 36.5245 41.5862 35.8645 43.0822 35.8645H43.1042ZM64.7067 39.3845C64.7067 38.1525 64.428 37.2139 63.8707 36.5685C62.756 35.3365 61.3847 34.6912 59.7567 34.6325C59.6247 34.6179 59.2287 34.6105 58.5687 34.6105H52.6067V50.6265H54.7187V44.4885C57.1533 44.4885 58.796 44.4739 59.6467 44.4445C61.744 44.3272 63.1593 43.6525 63.8927 42.4205C64.4353 41.5259 64.7067 40.5872 64.7067 39.6045V39.3845ZM54.7187 42.9925V36.1065H59.2067C60.4973 36.1065 61.414 36.5759 61.9567 37.5145C62.2207 37.9399 62.3527 38.6292 62.3527 39.5825C62.3527 40.5359 62.228 41.1812 61.9787 41.5185C61.26 42.5012 60.2407 42.9925 58.9207 42.9925H54.7187Z" fill="white"/>
</svg>
