<svg width="100" height="100" viewBox="0 0 100 100" fill="none" xmlns="http://www.w3.org/2000/svg">
<circle cx="50" cy="50" r="50" fill="#1A1A1A"/>
<path d="M29.7666 44.766H35.0466V59.066H37.1586V44.766H42.4166V43.05H29.7666V44.766ZM47.5206 58.296C48.6352 59.0587 49.8819 59.44 51.2606 59.44C52.6392 59.44 53.8859 59.066 55.0006 58.318C56.1006 57.5993 57.0172 56.602 57.7506 55.326C58.4399 54.0647 58.7846 52.642 58.7846 51.058C58.7846 49.474 58.4399 48.0293 57.7506 46.724C57.0466 45.448 56.1299 44.4433 55.0006 43.71C53.8712 42.9767 52.6246 42.61 51.2606 42.61C49.8966 42.61 48.6426 42.9987 47.4986 43.776C46.3692 44.5533 45.4599 45.5873 44.7706 46.878C44.0812 48.1687 43.7366 49.5693 43.7366 51.08C43.7366 52.6053 44.0812 53.9987 44.7706 55.26C45.4599 56.536 46.3766 57.548 47.5206 58.296ZM51.3486 44.304C52.8592 44.3187 54.0912 44.9493 55.0446 46.196C55.9832 47.4427 56.4526 49.0633 56.4526 51.058C56.4526 53.0527 55.9612 54.6513 54.9786 55.854C53.9959 57.1007 52.7492 57.724 51.2386 57.724C49.7132 57.724 48.4666 57.0933 47.4986 55.832C46.5452 54.5707 46.0686 52.994 46.0686 51.102C46.0686 49.1953 46.5746 47.5893 47.5866 46.284C48.5839 44.964 49.8306 44.304 51.3266 44.304H51.3486ZM72.951 47.824C72.951 46.592 72.6724 45.6533 72.115 45.008C71.0004 43.776 69.629 43.1307 68.001 43.072C67.869 43.0573 67.473 43.05 66.813 43.05H60.851V59.066H62.963V52.928C65.3977 52.928 67.0404 52.9133 67.891 52.884C69.9884 52.7667 71.4037 52.092 72.137 50.86C72.6797 49.9653 72.951 49.0267 72.951 48.044V47.824ZM62.963 51.432V44.546H67.451C68.7417 44.546 69.6584 45.0153 70.201 45.954C70.465 46.3793 70.597 47.0687 70.597 48.022C70.597 48.9753 70.4724 49.6207 70.223 49.958C69.5044 50.9407 68.485 51.432 67.165 51.432H62.963Z" fill="white"/>
</svg>
