<svg width="512" height="512" viewBox="0 0 512 512" fill="none" xmlns="http://www.w3.org/2000/svg">
<rect width="512" height="512" fill="white"/>
<path d="M148 304.2L153.2 306.8C153.2 309.92 153.893 312.693 155.28 315.12C157.707 319.28 162.473 323.353 169.58 327.34C176.687 331.327 184.833 334.88 194.02 338C203.207 341.12 212.827 343.633 222.88 345.54C232.933 347.447 241.947 348.4 249.92 348.4C255.813 348.4 263.44 347.967 272.8 347.1C282.16 346.233 291.347 344.413 300.36 341.64C309.373 338.867 317.173 335.053 323.76 330.2C330.347 325.347 333.64 318.933 333.64 310.96C333.64 302.987 330.607 297.093 324.54 293.28C318.473 289.467 310.5 286.693 300.62 284.96C290.74 283.227 279.473 282.1 266.82 281.58C254.167 281.06 241.253 280.28 228.08 279.24C214.907 278.2 201.993 276.467 189.34 274.04C176.687 271.613 165.42 267.54 155.54 261.82C145.66 256.1 137.687 248.3 131.62 238.42C125.553 228.54 122.52 215.627 122.52 199.68C122.52 188.933 125.033 178.36 130.06 167.96C135.087 157.56 142.8 148.373 153.2 140.4C163.6 132.427 176.773 125.927 192.72 120.9C208.667 115.873 227.387 113.36 248.88 113.36C267.253 113.36 283.2 114.747 296.72 117.52C310.24 120.293 321.94 123.24 331.82 126.36C341.7 129.48 350.02 132.427 356.78 135.2C363.54 137.973 369.173 139.36 373.68 139.36C378.533 139.36 382 138.32 384.08 136.24L390.32 140.4L354.44 205.4L349.24 203.32C348.547 198.467 347.16 194.48 345.08 191.36C342.307 187.2 337.713 183.127 331.3 179.14C324.887 175.153 317.347 171.6 308.68 168.48C300.013 165.36 290.653 162.847 280.6 160.94C270.547 159.033 260.493 158.08 250.44 158.08C242.813 158.08 234.927 158.687 226.78 159.9C218.633 161.113 211.267 162.933 204.68 165.36C198.093 167.787 192.633 170.993 188.3 174.98C183.967 178.967 181.8 183.907 181.8 189.8C181.8 198.12 184.833 204.36 190.9 208.52C196.967 212.68 204.94 215.8 214.82 217.88C224.7 219.96 235.967 221.347 248.62 222.04C261.273 222.733 274.187 223.6 287.36 224.64C300.533 225.68 313.447 227.5 326.1 230.1C338.753 232.7 350.02 236.86 359.9 242.58C369.78 248.3 377.753 256.013 383.82 265.72C389.887 275.427 392.92 288.08 392.92 303.68C392.92 321.707 388.153 336.44 378.62 347.88C369.087 359.32 357.213 368.333 343 374.92C328.787 381.507 313.447 385.927 296.98 388.18C280.513 390.433 265.173 391.56 250.96 391.56C231.2 391.56 214.647 390.433 201.3 388.18C187.953 385.927 176.86 383.153 168.02 379.86C159.18 376.567 152.16 373.62 146.96 371.02C141.76 368.42 137.253 367.12 133.44 367.12C131.013 367.12 128.76 368.507 126.68 371.28L119.4 367.12L148 304.2Z" fill="#DD1B57"/>
</svg>
