<svg width="107" height="21" viewBox="0 0 107 21" fill="none" xmlns="http://www.w3.org/2000/svg">
<path d="M35.6251 18.8218C35.6251 19.2146 35.8663 19.4109 36.3488 19.4109V20H31.2829V19.4109C31.4364 19.4109 31.5735 19.3618 31.6941 19.2637C31.8147 19.1655 31.875 19.0182 31.875 18.8218V5.7964H26.4474C26.25 5.7964 26.0581 5.85094 25.8717 5.96003C25.6853 6.06912 25.5921 6.2764 25.5921 6.58185H25V2.00003H25.5921C25.5921 2.30549 25.6853 2.51276 25.8717 2.62185C26.0581 2.73094 26.25 2.78549 26.4474 2.78549H41.0527C41.2501 2.78549 41.442 2.73094 41.6284 2.62185C41.8148 2.51276 41.908 2.30549 41.908 2.00003H42.5001V6.58185H41.908C41.908 6.2764 41.8148 6.06912 41.6284 5.96003C41.442 5.85094 41.2501 5.7964 41.0527 5.7964H35.6251V18.8218ZM56.2631 13.3237L53.4999 7.2364L50.4078 13.3237H56.2631ZM43.8617 19.4109C44.1468 19.3673 44.3716 19.2255 44.5361 18.9855C44.7005 18.7455 44.8595 18.4728 45.013 18.1673L51.0986 5.4364C51.2521 5.15276 51.3892 4.89094 51.5098 4.65094C51.6304 4.41094 51.6907 4.20367 51.6907 4.02912C51.6907 3.81094 51.6139 3.65821 51.4604 3.57094C51.3069 3.48367 51.1425 3.41821 50.967 3.37458V2.78549H56.5263V3.37458C56.3727 3.41821 56.2192 3.47822 56.0657 3.55458C55.9122 3.63094 55.8355 3.78912 55.8355 4.02912C55.8355 4.20367 55.8738 4.37822 55.9506 4.55276C56.0274 4.7273 56.1425 4.9564 56.296 5.24003L63.1381 18.56C63.2478 18.8 63.3958 18.9746 63.5822 19.0837C63.7686 19.1928 63.9824 19.3018 64.2237 19.4109V20H58.4342V19.4109C58.5219 19.4109 58.6315 19.3782 58.7631 19.3128C58.8947 19.2473 58.9605 19.1491 58.9605 19.0182C58.9605 18.8 58.8728 18.5164 58.6973 18.1673L57.4473 15.7455H49.4209L48.2367 18.0691C48.0174 18.5273 47.9078 18.8546 47.9078 19.0509C47.9078 19.2909 48.1161 19.4109 48.5328 19.4109V20H43.8617V19.4109ZM77.4932 10.4437C78.2827 10.4437 78.9406 10.3837 79.4669 10.2637C79.9933 10.1437 80.4099 9.97458 80.7169 9.7564C81.024 9.53821 81.2433 9.28185 81.3748 8.9873C81.5064 8.69276 81.5722 8.37094 81.5722 8.02185C81.5722 7.67276 81.5064 7.35094 81.3748 7.0564C81.2433 6.76185 81.024 6.50549 80.7169 6.28731C80.4099 6.06912 79.9933 5.90003 79.4669 5.78003C78.9406 5.66003 78.2827 5.60003 77.4932 5.60003H71.8024V10.4437H77.4932ZM78.3485 2.78549C79.4011 2.78549 80.3551 2.87822 81.2104 3.06367C82.0656 3.24912 82.8003 3.54367 83.4143 3.94731C84.0284 4.35094 84.4999 4.87458 84.8288 5.51822C85.1578 6.16185 85.3222 6.95276 85.3222 7.89094C85.3222 9.33094 84.8946 10.4328 84.0393 11.1964C83.1841 11.96 82.0327 12.4728 80.5854 12.7346L84.9604 18.9528C85.1139 19.1709 85.2948 19.3018 85.5032 19.3455C85.7115 19.3891 85.9034 19.4109 86.0788 19.4109V20H79.9275V19.4109C80.1248 19.4109 80.2948 19.3782 80.4373 19.3128C80.5799 19.2473 80.6512 19.16 80.6512 19.0509C80.6512 18.9418 80.6073 18.8164 80.5196 18.6746C80.4319 18.5328 80.3003 18.3418 80.1248 18.1018L76.5064 12.9964H71.8024V18.8218C71.8024 19.0182 71.8737 19.1655 72.0162 19.2637C72.1588 19.3618 72.4165 19.4109 72.7893 19.4109V20H67.0984V19.4109C67.7344 19.4109 68.0524 19.2146 68.0524 18.8218V3.96367C68.0524 3.57094 67.7344 3.37458 67.0984 3.37458V2.78549H78.3485ZM100.125 18.8218C100.125 19.2146 100.366 19.4109 100.849 19.4109V20H95.7828V19.4109C95.9363 19.4109 96.0734 19.3618 96.194 19.2637C96.3146 19.1655 96.3749 19.0182 96.3749 18.8218V5.7964H90.9473C90.7499 5.7964 90.558 5.85094 90.3716 5.96003C90.1852 6.06912 90.092 6.2764 90.092 6.58185H89.4999V2.00003H90.092C90.092 2.30549 90.1852 2.51276 90.3716 2.62185C90.558 2.73094 90.7499 2.78549 90.9473 2.78549H105.553C105.75 2.78549 105.942 2.73094 106.128 2.62185C106.315 2.51276 106.408 2.30549 106.408 2.00003H107V6.58185H106.408C106.408 6.2764 106.315 6.06912 106.128 5.96003C105.942 5.85094 105.75 5.7964 105.553 5.7964H100.125V18.8218Z" fill="#212121"/>
<path d="M2.19582 14.4056L2.59506 14.6019C2.59506 14.8374 2.64829 15.0467 2.75475 15.2299C2.94106 15.5439 3.30703 15.8514 3.85266 16.1523C4.39829 16.4533 5.02376 16.7215 5.72909 16.957C6.43441 17.1925 7.173 17.3822 7.94487 17.5262C8.71673 17.6701 9.40874 17.7421 10.0209 17.7421C10.4734 17.7421 11.0589 17.7093 11.7776 17.6439C12.4962 17.5785 13.2015 17.4411 13.8935 17.2318C14.5856 17.0224 15.1844 16.7346 15.6901 16.3682C16.1958 16.0019 16.4487 15.5178 16.4487 14.9159C16.4487 14.314 16.2158 13.8692 15.75 13.5813C15.2842 13.2935 14.6721 13.0841 13.9135 12.9533C13.1549 12.8224 12.2899 12.7374 11.3184 12.6981C10.347 12.6589 9.35551 12.6 8.34411 12.5215C7.3327 12.443 6.34126 12.3121 5.36977 12.129C4.39829 11.9458 3.53327 11.6383 2.77472 11.2065C2.01616 10.7748 1.40399 10.186 0.938214 9.44018C0.472434 8.69439 0.239543 7.71963 0.239543 6.51589C0.239543 5.70467 0.43251 4.90654 0.818441 4.12149C1.20437 3.33645 1.79658 2.64299 2.59506 2.04112C3.39354 1.43925 4.40494 0.948593 5.62928 0.56916C6.85361 0.18972 8.29088 0 9.94106 0C11.3517 0 12.576 0.104671 13.6141 0.314018C14.6521 0.523365 15.5504 0.745792 16.3089 0.981304C17.0675 1.21682 17.7063 1.43925 18.2253 1.64859C18.7443 1.85794 19.1768 1.96261 19.5228 1.96261C19.8954 1.96261 20.1616 1.88411 20.3213 1.7271L20.8004 2.04112L18.0456 6.94766L17.6464 6.79065C17.5932 6.4243 17.4867 6.12336 17.327 5.88785C17.1141 5.57383 16.7614 5.26635 16.269 4.96542C15.7766 4.66448 15.1977 4.39626 14.5323 4.16075C13.8669 3.92523 13.1483 3.73551 12.3764 3.59159C11.6046 3.44766 10.8327 3.37569 10.0608 3.37569C9.47529 3.37569 8.86977 3.42149 8.2443 3.51308C7.61882 3.60467 7.05323 3.74206 6.54753 3.92523C6.04183 4.10841 5.62263 4.35046 5.28992 4.6514C4.95722 4.95233 4.79087 5.32523 4.79087 5.77009C4.79087 6.39813 5.02376 6.86916 5.48954 7.18318C5.95532 7.49719 6.56749 7.73271 7.32605 7.88972C8.0846 8.04673 8.94962 8.1514 9.9211 8.20374C10.8926 8.25607 11.884 8.32149 12.8954 8.4C13.9068 8.4785 14.8983 8.61588 15.8698 8.81215C16.8413 9.00841 17.7063 9.32243 18.4648 9.7542C19.2234 10.186 19.8356 10.7682 20.3013 11.5009C20.7671 12.2336 21 13.1888 21 14.3664C21 15.7271 20.634 16.8393 19.9021 17.7028C19.1702 18.5664 18.2586 19.2467 17.1673 19.7439C16.076 20.2411 14.8983 20.5748 13.634 20.7449C12.3698 20.915 11.192 21 10.1008 21C8.58365 21 7.31274 20.915 6.28802 20.7449C5.26331 20.5748 4.4116 20.3654 3.73289 20.1168C3.05418 19.8682 2.51521 19.6458 2.11597 19.4495C1.71673 19.2533 1.37072 19.1551 1.07795 19.1551C0.891635 19.1551 0.718631 19.2598 0.558936 19.4692L0 19.1551L2.19582 14.4056Z" fill="#DD1B57"/>
</svg>
